# xmcd
#
# Track frame offsets:
#	150
#	15220
#	32357
#	51920
#	68172
#	82882
#	102742
#	119724
#	136940
#	150310
#	169024
#	186177
#	199426
#	212787
#	228573
#	244747
#	261911
#	279151
#	296705
#
# Disc length: 4175 seconds
#
# Revision: 0
# Processed by: cddbd v1.5.2PL0 Copyright (c) Steve Scherf et al.
# Submitted via: EasyCDDAExtractor 11.5.0.1
#
DISCID=0f104d13
DTITLE=Various Artist - NCT 038
DYEAR=2002
DGENRE=Country
TTITLE0=Kenny Chesney - The Good Stuff
TTITLE1=Lee Ann Womack - Something Worth Leaving Behind
TTITLE2=Lonestar - Gimme All Your Lovin'
TTITLE3=SheDaisy - Mine All Mine
TTITLE4=Toby Keith - Courtesy Of The Red White And Blue (The Angry American)
TTITLE5=Tammy Cochran - Life Happened
TTITLE6=Brad Paisley - Sharp Dressed Man
TTITLE7=The Clark Family Experience - Going Away
TTITLE8=Kevin Denney - Cadillac Tears
TTITLE9=Montgomery Gentry - My Town
TTITLE10=Rhett Akins - Highway Sunrise
TTITLE11=Daryle Singletary - That's Why I Sing This Way
TTITLE12=McBride and the Ride - Squeeze Box
TTITLE13=Amy Grant - The River's Gonna Keep On Rolling
TTITLE14=Blackhawk - One Night In New Orleans
TTITLE15=Tracy Byrd - La Grange
TTITLE16=David Nail - Memphis
TTITLE17=James Otto - The Ball
TTITLE18=George Strait - Living And Living Well
EXTD=
EXTT0=
EXTT1=
EXTT2=
EXTT3=
EXTT4=
EXTT5=
EXTT6=
EXTT7=
EXTT8=
EXTT9=
EXTT10=
EXTT11=
EXTT12=
EXTT13=
EXTT14=
EXTT15=
EXTT16=
EXTT17=
EXTT18=
PLAYORDER=
